<svg clip-rule="evenodd" fill-rule="evenodd" stroke-linejoin="round" stroke-miterlimit="2" viewBox="0 0 560 400" xmlns="http://www.w3.org/2000/svg"><path d="m31 20.5v2.5c0 7-10.2 11-13.3 12l-1.1.4v-4.3l.6-.2c4.9-1.8 9.8-4.9 9.8-7.9v-2.5zm-15.5-20.5 4.2 1.3v4.4l-4.2-1.3-.3.1v9.9h4.4v4.1h-4.4v16.8l-1.2-.4c-.5-.2-1.4-.5-2.5-1l-.5-.2v-32.4zm-5.7 1.8v4.4l-5.7 1.7v6.5h5.7v18.9l-1.3-.6c-3.9-2-8.5-5.3-8.5-10v-2.2h4.1v2.2c0 1 .5 2 1.5 3v-7.2h-5.6v-13.8zm11.1-.1 10 3.1v13.8h-5.9v6s-1.3 1.7-4.1 3.1zm4.2 5.6v7.1h1.8v-6.5z" fill="#050101" transform="matrix(7.62712 0 0 7.62712 161.78 65)"/></svg>